<?xml version="1.0" encoding="utf-8"?>
<!-- Generator: Adobe Illustrator 13.0.0, SVG Export Plug-In . SVG Version: 6.00 Build 14948)  -->
<!DOCTYPE svg PUBLIC "-//W3C//DTD SVG 1.1//EN" "http://www.w3.org/Graphics/SVG/1.1/DTD/svg11.dtd">
<svg version="1.1" id="Layer_1" xmlns="http://www.w3.org/2000/svg" xmlns:xlink="http://www.w3.org/1999/xlink" x="0px" y="0px"
	 width="1159px" height="812.262px" viewBox="0 0 1159 812.262" enable-background="new 0 0 1159 812.262" xml:space="preserve">
<pattern  x="179" y="805.631" width="72" height="72" patternUnits="userSpaceOnUse" id="Stipple_Irregular" viewBox="18.109 -74.476 72 72" overflow="visible">
	<g>
		<polygon fill="none" points="18.109,-2.476 90.109,-2.476 90.109,-74.476 18.109,-74.476 		"/>
		<g>
			<polygon fill="none" points="18.109,-74.477 18.109,-2.477 90.109,-2.477 90.109,-74.477 			"/>
			<line fill="none" x1="2.109" y1="-68.477" x2="8.109" y2="-74.477"/>
			<line fill="none" x1="2.109" y1="-74.477" x2="8.109" y2="-68.477"/>
			<path fill="none" stroke="#231F20" stroke-width="0.3" d="M41.543-13.507c2.397,1.286,6.532,1.69,7.723,0.704
				c1.115-0.926,1.703-2.896-2.795-3.201C41.973-16.311,39.101-14.816,41.543-13.507z"/>
			<path fill="none" stroke="#231F20" stroke-width="0.3" d="M47.729-19.799c-1.614,1.282-5.233,0.646-4.37-0.678
				c0.863-1.323,5.123-2.794,6.408-1.581C51.052-20.842,48.512-20.421,47.729-19.799z"/>
			<path fill="none" stroke="#231F20" stroke-width="0.3" d="M69.127-19.669c-1.581,1.321-5.216,0.774-4.385-0.569
				c0.829-1.346,5.054-2.92,6.367-1.737C72.423-20.794,69.894-20.311,69.127-19.669z"/>
			<path fill="none" stroke="#231F20" stroke-width="0.3" d="M70.982-44.44c-1.746,1.097-5.272,0.063-4.269-1.159
				c1.005-1.221,5.403-2.208,6.545-0.857C74.4-45.107,71.83-44.973,70.982-44.44z"/>
			<path fill="none" stroke="#231F20" stroke-width="0.3" d="M21.46-66.353c-1.889,0.825-5.224-0.716-4.05-1.774
				c1.172-1.061,5.667-1.39,6.599,0.114C24.938-66.51,22.377-66.753,21.46-66.353z"/>
			<path fill="none" stroke="#231F20" stroke-width="0.3" d="M63.902-68.433c1.888,0.829,3.017,4.326,1.443,4.183
				c-1.575-0.146-4.865-3.225-4.391-4.929C61.429-70.882,62.987-68.832,63.902-68.433z"/>
			<path fill="none" stroke="#231F20" stroke-width="0.3" d="M78.609-63.477c-2.062,0-4.5-2.75-3-3.25s5.75,1,6,2.75
				S79.609-63.477,78.609-63.477z"/>
			<path fill="none" stroke="#231F20" stroke-width="0.3" d="M70.359-9.477c-2.062,0-4.5-2.75-3-3.25s5.75,1,6,2.75
				S71.359-9.477,70.359-9.477z"/>
			<path fill="none" stroke="#231F20" stroke-width="0.3" d="M74.654-35.807c-1.27,1.625-4.938,1.854-4.407,0.361
				c0.529-1.489,4.33-3.914,5.862-3.031C77.641-37.596,75.27-36.594,74.654-35.807z"/>
			<path fill="none" stroke="#231F20" stroke-width="0.3" d="M54.109-26.977c-2.062,0-4.5-2.75-3-3.25s5.75,1,6,2.75
				S55.109-26.977,54.109-26.977z"/>
			<path fill="none" stroke="#231F20" stroke-width="0.3" d="M37.109-59.977c-2.25-1.29-6.177-1.785-7.338-0.877
				c-1.088,0.851-1.699,2.713,2.577,3.125C36.624-57.32,39.399-58.662,37.109-59.977z"/>
			<path fill="none" stroke="#231F20" stroke-width="0.3" d="M52.609-45.727c1.889,3.307,4.75,1.25,4-0.5
				S51.609-47.477,52.609-45.727z"/>
			<path fill="none" stroke="#231F20" stroke-width="0.3" d="M38.609-50.977c1.889,3.307,4.75,1.25,4-0.5
				S37.609-52.727,38.609-50.977z"/>
			<path fill="none" stroke="#231F20" stroke-width="0.3" d="M40.859-32.227c1.889,3.307,2.75,0.75,2-1S39.859-33.977,40.859-32.227
				z"/>
			<path fill="none" stroke="#231F20" stroke-width="0.3" d="M32.609-9.477c1.889,3.307,4.75,1.25,4-0.5S31.609-11.227,32.609-9.477
				z"/>
			<path fill="none" stroke="#231F20" stroke-width="0.3" d="M73.271-54.796c1.537,2.244,5.022,4.505,6.534,4.177
				c1.416-0.306,2.844-1.789-1.01-4.129C74.942-57.087,71.706-57.082,73.271-54.796z"/>
			<path fill="none" stroke="#231F20" stroke-width="0.3" d="M39.216-65.22c-1.934,0.713-5.173-1.024-3.938-2.015
				c0.383-0.406,5.741-1.049,6.581,0.508C42.698-65.171,40.155-65.566,39.216-65.22z"/>
			<path fill="none" stroke="#231F20" stroke-width="0.3" d="M60.609-8.227c1.889,3.307,4.75,1.25,4-0.5S59.609-9.977,60.609-8.227z
				"/>
			<path fill="none" stroke="#231F20" stroke-width="0.3" d="M32.109-44.977c1.889,3.307,4.75,1.25,4-0.5
				S31.109-46.727,32.109-44.977z"/>
			<path fill="none" stroke="#231F20" stroke-width="0.3" d="M53.109-57.727c-2.062,0-4.5-2.75-3-3.25s5.75,1,6,2.75
				S54.109-57.727,53.109-57.727z"/>
			<path fill="none" stroke="#231F20" stroke-width="0.3" d="M31.456-28.664c-1.651,1.231-5.25,0.485-4.347-0.813
				c0.903-1.298,5.207-2.637,6.453-1.383C34.809-29.606,32.259-29.263,31.456-28.664z"/>
			<path fill="none" stroke="#231F20" stroke-width="0.3" d="M23.859-15.477c1.889,3.307,4.75,1.25,4-0.5
				S22.859-17.227,23.859-15.477z"/>
			<path fill="none" stroke="#231F20" stroke-width="0.3" d="M85.15-17.669c-2.656-0.657-6.787-0.024-7.702,1.231
				c-0.857,1.18-0.939,3.247,3.52,2.428C85.428-14.828,87.854-16.998,85.15-17.669z"/>
			<path fill="none" stroke="#231F20" stroke-width="0.3" d="M26.609-1.977c-2.062,0-4.5-2.75-3-3.25s5.75,1,6,2.75
				S27.609-1.977,26.609-1.977z"/>
			<path fill="none" stroke="#231F20" stroke-width="0.3" d="M34.609-23.727c1.889,3.307,4.75,1.25,4-0.5
				S33.609-25.477,34.609-23.727z"/>
			<path fill="none" stroke="#231F20" stroke-width="0.3" d="M20.609-22.477c-2.062,0-4.5-2.75-3-3.25s5.75,1,6,2.75
				S21.609-22.477,20.609-22.477z"/>
			<path fill="none" stroke="#231F20" stroke-width="0.3" d="M92.609-22.477c-2.062,0-4.5-2.75-3-3.25s5.75,1,6,2.75"/>
			<path fill="none" stroke="#231F20" stroke-width="0.3" d="M83.109-28.977c1.889,3.307,4.75,1.25,4-0.5
				S82.109-30.727,83.109-28.977z"/>
			<path fill="none" stroke="#231F20" stroke-width="0.3" d="M73.109-25.477c-2.062,0-4.5-2.75-3-3.25s5.75,1,6,2.75
				S74.109-25.477,73.109-25.477z"/>
			<path fill="none" stroke="#231F20" stroke-width="0.3" d="M88.504-37.283c-1.652,1.233-5.251,0.486-4.348-0.81
				c0.903-1.3,5.207-2.638,6.453-1.385C91.855-38.224,89.305-37.879,88.504-37.283z"/>
			<path fill="none" stroke="#231F20" stroke-width="0.3" d="M76.859-9.227c1.889,3.307,2.75,0.75,2-1S75.859-10.977,76.859-9.227z"
				/>
			<path fill="none" stroke="#231F20" stroke-width="0.3" d="M83.609-58.727c1.889,3.307,4.75,1.25,4-0.5
				S82.609-60.477,83.609-58.727z"/>
			<path fill="none" stroke="#231F20" stroke-width="0.3" d="M26.609-73.977c-2.062,0-4.5-2.75-3-3.25s5.75,1,6,2.75
				S27.609-73.977,26.609-73.977z"/>
			<path fill="none" stroke="#231F20" stroke-width="0.3" d="M27.109-38.727c-2.062,0-4.5-2.75-3-3.25s5.75,1,6,2.75
				S28.109-38.727,27.109-38.727z"/>
			<path fill="none" stroke="#231F20" stroke-width="0.3" d="M47.956-3.914c-1.651,1.231-5.25,0.485-4.347-0.813
				c0.903-1.298,5.207-2.637,6.453-1.382C51.309-4.856,48.759-4.513,47.956-3.914z"/>
			<path fill="none" stroke="#231F20" stroke-width="0.3" d="M58.359-73.727c-2.062,0-4.5-2.75-3-3.25s5.75,1,6,2.75
				S59.359-73.727,58.359-73.727z"/>
			<path fill="none" stroke="#231F20" stroke-width="0.3" d="M45.011-47.113c0.949-1.832,4.512-2.73,4.266-1.17
				c-0.245,1.563-3.532,4.646-5.2,4.063C42.406-44.802,44.552-46.225,45.011-47.113z"/>
			<path fill="none" stroke="#231F20" stroke-width="0.3" d="M61.859-38.977c-3.726-0.784-2.388,1.558-0.582,2.16
				C63.083-36.215,63.831-38.562,61.859-38.977z"/>
			<path fill="none" stroke="#231F20" stroke-width="0.3" d="M47.282-37.07c1.826,1.83,5.475,3.334,6.829,2.767
				c1.27-0.535,2.345-2.167-1.66-3.683C48.444-39.498,45.423-38.932,47.282-37.07z"/>
			<path fill="none" stroke="#231F20" stroke-width="0.3" d="M91.754-51.283c-1.652,1.233-5.251,0.486-4.348-0.81
				c0.903-1.3,5.207-2.638,6.453-1.385"/>
			<path fill="none" stroke="#231F20" stroke-width="0.3" d="M52.109-65.227c-1.889,3.307-4.75,1.25-4-0.5
				S53.109-66.977,52.109-65.227z"/>
			<path fill="none" stroke="#231F20" stroke-width="0.3" d="M63.07-55.383c0.431-2.017,3.627-3.828,3.804-2.258
				c0.177,1.57-2.176,5.416-3.938,5.297C61.172-52.464,62.862-54.404,63.07-55.383z"/>
			<path fill="none" stroke="#231F20" stroke-width="0.3" d="M58.359-1.727c-2.062,0-4.5-2.75-3-3.25s5.75,1,6,2.75
				S59.359-1.727,58.359-1.727z"/>
			<path fill="none" stroke="#231F20" stroke-width="0.3" d="M57.609-15.727c-3.726-0.784-2.388,1.558-0.582,2.16
				C58.833-12.965,59.581-15.312,57.609-15.727z"/>
			<path fill="none" stroke="#231F20" stroke-width="0.3" d="M91.609-7.727c-1.889-3.307-4.75-1.25-4,0.5S92.609-5.977,91.609-7.727
				z"/>
			<path fill="none" stroke="#231F20" stroke-width="0.3" d="M19.753-51.283c-1.651,1.233-5.251,0.486-4.347-0.81
				c0.903-1.3,5.207-2.638,6.453-1.385C23.106-52.224,20.555-51.879,19.753-51.283z"/>
			<path fill="none" stroke="#231F20" stroke-width="0.3" d="M19.609-7.727c-1.889-3.307-4.75-1.25-4,0.5S20.609-5.977,19.609-7.727
				z"/>
			<path fill="none" stroke="#231F20" stroke-width="0.3" d="M93.461-66.353c-1.89,0.825-5.226-0.716-4.052-1.774
				c1.173-1.061,5.668-1.39,6.6,0.114"/>
			<path fill="none" stroke="#231F20" stroke-width="0.3" d="M12.156-38.092c0.903-1.3,5.207-2.638,6.453-1.385
				c1.247,1.253-1.304,1.598-2.106,2.193"/>
			<path fill="none" stroke="#231F20" stroke-width="0.3" d="M78.159-72.625c-0.795,1.443-4.828,1.844-4.6,0.6
				c0.227-1.244,2.917-3.646,4.24-3.146C79.122-74.671,78.545-73.326,78.159-72.625z"/>
			<path fill="none" stroke="#231F20" stroke-width="0.3" d="M73.559-0.027c0.227-1.243,2.917-3.645,4.24-3.146
				c1.322,0.5,0.745,1.847,0.359,2.548"/>
			<path fill="none" stroke="#231F20" stroke-width="0.3" d="M1.042-17.757c2.397,1.286,6.532,1.69,7.723,0.704
				c1.115-0.926,1.703-2.896-2.795-3.201C1.473-20.561-1.399-19.066,1.042-17.757z"/>
			
				<line fill="none" stroke="#231F20" stroke-width="0.5" stroke-linecap="round" stroke-linejoin="bevel" x1="27.698" y1="-11.119" x2="27.698" y2="-11.119"/>
			
				<line fill="none" stroke="#231F20" stroke-width="0.5" stroke-linecap="round" stroke-linejoin="bevel" x1="31.198" y1="-11.369" x2="31.198" y2="-11.369"/>
			
				<line fill="none" stroke="#231F20" stroke-width="0.5" stroke-linecap="round" stroke-linejoin="bevel" x1="35.198" y1="-17.119" x2="35.198" y2="-17.119"/>
			
				<line fill="none" stroke="#231F20" stroke-width="0.5" stroke-linecap="round" stroke-linejoin="bevel" x1="23.109" y1="-24.727" x2="23.109" y2="-24.727"/>
			
				<line fill="none" stroke="#231F20" stroke-width="0.5" stroke-linecap="round" stroke-linejoin="bevel" x1="29.948" y1="-19.619" x2="29.948" y2="-19.619"/>
			
				<line fill="none" stroke="#231F20" stroke-width="0.5" stroke-linecap="round" stroke-linejoin="bevel" x1="40.698" y1="-22.869" x2="40.698" y2="-22.869"/>
			
				<line fill="none" stroke="#231F20" stroke-width="0.5" stroke-linecap="round" stroke-linejoin="bevel" x1="35.948" y1="-30.119" x2="35.948" y2="-30.119"/>
			
				<line fill="none" stroke="#231F20" stroke-width="0.5" stroke-linecap="round" stroke-linejoin="bevel" x1="29.698" y1="-33.369" x2="29.698" y2="-33.369"/>
			
				<line fill="none" stroke="#231F20" stroke-width="0.5" stroke-linecap="round" stroke-linejoin="bevel" x1="58.609" y1="-24.477" x2="58.609" y2="-24.477"/>
			
				<line fill="none" stroke="#231F20" stroke-width="0.5" stroke-linecap="round" stroke-linejoin="bevel" x1="41.698" y1="-12.369" x2="41.698" y2="-12.369"/>
			
				<line fill="none" stroke="#231F20" stroke-width="0.5" stroke-linecap="round" stroke-linejoin="bevel" x1="56.448" y1="-9.119" x2="56.448" y2="-9.119"/>
			
				<line fill="none" stroke="#231F20" stroke-width="0.5" stroke-linecap="round" stroke-linejoin="bevel" x1="62.198" y1="-17.119" x2="62.198" y2="-17.119"/>
			
				<line fill="none" stroke="#231F20" stroke-width="0.5" stroke-linecap="round" stroke-linejoin="bevel" x1="67.698" y1="-14.369" x2="67.698" y2="-14.369"/>
			
				<line fill="none" stroke="#231F20" stroke-width="0.5" stroke-linecap="round" stroke-linejoin="bevel" x1="72.948" y1="-19.119" x2="72.948" y2="-19.119"/>
			
				<line fill="none" stroke="#231F20" stroke-width="0.5" stroke-linecap="round" stroke-linejoin="bevel" x1="77.109" y1="-20.977" x2="77.109" y2="-20.977"/>
			
				<line fill="none" stroke="#231F20" stroke-width="0.5" stroke-linecap="round" stroke-linejoin="bevel" x1="74.198" y1="-6.369" x2="74.198" y2="-6.369"/>
			
				<line fill="none" stroke="#231F20" stroke-width="0.5" stroke-linecap="round" stroke-linejoin="bevel" x1="67.698" y1="-6.619" x2="67.698" y2="-6.619"/>
			
				<line fill="none" stroke="#231F20" stroke-width="0.5" stroke-linecap="round" stroke-linejoin="bevel" x1="69.698" y1="-8.369" x2="69.698" y2="-8.369"/>
			
				<line fill="none" stroke="#231F20" stroke-width="0.5" stroke-linecap="round" stroke-linejoin="bevel" x1="83.198" y1="-19.619" x2="83.198" y2="-19.619"/>
			
				<line fill="none" stroke="#231F20" stroke-width="0.5" stroke-linecap="round" stroke-linejoin="bevel" x1="83.448" y1="-10.369" x2="83.448" y2="-10.369"/>
			
				<line fill="none" stroke="#231F20" stroke-width="0.5" stroke-linecap="round" stroke-linejoin="bevel" x1="40.698" y1="-4.869" x2="40.698" y2="-4.869"/>
			
				<line fill="none" stroke="#231F20" stroke-width="0.5" stroke-linecap="round" stroke-linejoin="bevel" x1="26.948" y1="-7.369" x2="26.948" y2="-7.369"/>
			
				<line fill="none" stroke="#231F20" stroke-width="0.5" stroke-linecap="round" stroke-linejoin="bevel" x1="20.198" y1="-6.119" x2="20.198" y2="-6.119"/>
			
				<line fill="none" stroke="#231F20" stroke-width="0.5" stroke-linecap="round" stroke-linejoin="bevel" x1="78.609" y1="-39.477" x2="78.609" y2="-39.477"/>
			
				<line fill="none" stroke="#231F20" stroke-width="0.5" stroke-linecap="round" stroke-linejoin="bevel" x1="75.698" y1="-28.369" x2="75.698" y2="-28.369"/>
			
				<line fill="none" stroke="#231F20" stroke-width="0.5" stroke-linecap="round" stroke-linejoin="bevel" x1="58.198" y1="-19.369" x2="58.198" y2="-19.369"/>
			
				<line fill="none" stroke="#231F20" stroke-width="0.5" stroke-linecap="round" stroke-linejoin="bevel" x1="61.948" y1="-28.119" x2="61.948" y2="-28.119"/>
			
				<line fill="none" stroke="#231F20" stroke-width="0.5" stroke-linecap="round" stroke-linejoin="bevel" x1="49.698" y1="-32.869" x2="49.698" y2="-32.869"/>
			
				<line fill="none" stroke="#231F20" stroke-width="0.5" stroke-linecap="round" stroke-linejoin="bevel" x1="66.448" y1="-33.869" x2="66.448" y2="-33.869"/>
			
				<line fill="none" stroke="#231F20" stroke-width="0.5" stroke-linecap="round" stroke-linejoin="bevel" x1="72.948" y1="-42.369" x2="72.948" y2="-42.369"/>
			
				<line fill="none" stroke="#231F20" stroke-width="0.5" stroke-linecap="round" stroke-linejoin="bevel" x1="60.698" y1="-45.619" x2="60.698" y2="-45.619"/>
			
				<line fill="none" stroke="#231F20" stroke-width="0.5" stroke-linecap="round" stroke-linejoin="bevel" x1="44.109" y1="-57.477" x2="44.109" y2="-57.477"/>
			
				<line fill="none" stroke="#231F20" stroke-width="0.5" stroke-linecap="round" stroke-linejoin="bevel" x1="45.198" y1="-39.119" x2="45.198" y2="-39.119"/>
			
				<line fill="none" stroke="#231F20" stroke-width="0.5" stroke-linecap="round" stroke-linejoin="bevel" x1="39.609" y1="-37.477" x2="39.609" y2="-37.477"/>
			
				<line fill="none" stroke="#231F20" stroke-width="0.5" stroke-linecap="round" stroke-linejoin="bevel" x1="44.198" y1="-27.619" x2="44.198" y2="-27.619"/>
			
				<line fill="none" stroke="#231F20" stroke-width="0.5" stroke-linecap="round" stroke-linejoin="bevel" x1="29.448" y1="-26.869" x2="29.448" y2="-26.869"/>
			
				<line fill="none" stroke="#231F20" stroke-width="0.5" stroke-linecap="round" stroke-linejoin="bevel" x1="24.948" y1="-18.369" x2="24.948" y2="-18.369"/>
			
				<line fill="none" stroke="#231F20" stroke-width="0.5" stroke-linecap="round" stroke-linejoin="bevel" x1="77.609" y1="-46.227" x2="77.609" y2="-46.227"/>
			
				<line fill="none" stroke="#231F20" stroke-width="0.5" stroke-linecap="round" stroke-linejoin="bevel" x1="82.698" y1="-32.619" x2="82.698" y2="-32.619"/>
			
				<line fill="none" stroke="#231F20" stroke-width="0.5" stroke-linecap="round" stroke-linejoin="bevel" x1="76.448" y1="-32.369" x2="76.448" y2="-32.369"/>
			
				<line fill="none" stroke="#231F20" stroke-width="0.5" stroke-linecap="round" stroke-linejoin="bevel" x1="83.448" y1="-23.619" x2="83.448" y2="-23.619"/>
			
				<line fill="none" stroke="#231F20" stroke-width="0.5" stroke-linecap="round" stroke-linejoin="bevel" x1="79.698" y1="-24.369" x2="79.698" y2="-24.369"/>
			
				<line fill="none" stroke="#231F20" stroke-width="0.5" stroke-linecap="round" stroke-linejoin="bevel" x1="85.698" y1="-4.869" x2="85.698" y2="-4.869"/>
			
				<line fill="none" stroke="#231F20" stroke-width="0.5" stroke-linecap="round" stroke-linejoin="bevel" x1="51.198" y1="-5.869" x2="51.198" y2="-5.869"/>
			
				<line fill="none" stroke="#231F20" stroke-width="0.5" stroke-linecap="round" stroke-linejoin="bevel" x1="64.948" y1="-25.619" x2="64.948" y2="-25.619"/>
			
				<line fill="none" stroke="#231F20" stroke-width="0.5" stroke-linecap="round" stroke-linejoin="bevel" x1="22.698" y1="-46.619" x2="22.698" y2="-46.619"/>
			
				<line fill="none" stroke="#231F20" stroke-width="0.5" stroke-linecap="round" stroke-linejoin="bevel" x1="82.198" y1="-48.619" x2="82.198" y2="-48.619"/>
			
				<line fill="none" stroke="#231F20" stroke-width="0.5" stroke-linecap="round" stroke-linejoin="bevel" x1="83.948" y1="-40.369" x2="83.948" y2="-40.369"/>
			
				<line fill="none" stroke="#231F20" stroke-width="0.5" stroke-linecap="round" stroke-linejoin="bevel" x1="58.698" y1="-39.619" x2="58.698" y2="-39.619"/>
			
				<line fill="none" stroke="#231F20" stroke-width="0.5" stroke-linecap="round" stroke-linejoin="bevel" x1="59.359" y1="-31.977" x2="59.359" y2="-31.977"/>
			
				<line fill="none" stroke="#231F20" stroke-width="0.5" stroke-linecap="round" stroke-linejoin="bevel" x1="39.109" y1="-56.477" x2="39.109" y2="-56.477"/>
			
				<line fill="none" stroke="#231F20" stroke-width="0.5" stroke-linecap="round" stroke-linejoin="bevel" x1="36.46" y1="-35.399" x2="36.46" y2="-35.399"/>
			
				<line fill="none" stroke="#231F20" stroke-width="0.5" stroke-linecap="round" stroke-linejoin="bevel" x1="59.21" y1="-35.649" x2="59.21" y2="-35.649"/>
			
				<line fill="none" stroke="#231F20" stroke-width="0.5" stroke-linecap="round" stroke-linejoin="bevel" x1="84.359" y1="-62.977" x2="84.359" y2="-62.977"/>
			
				<line fill="none" stroke="#231F20" stroke-width="0.5" stroke-linecap="round" stroke-linejoin="bevel" x1="66.609" y1="-27.727" x2="66.609" y2="-27.727"/>
			
				<line fill="none" stroke="#231F20" stroke-width="0.5" stroke-linecap="round" stroke-linejoin="bevel" x1="59.609" y1="-52.227" x2="59.609" y2="-52.227"/>
			
				<line fill="none" stroke="#231F20" stroke-width="0.5" stroke-linecap="round" stroke-linejoin="bevel" x1="44.46" y1="-35.899" x2="44.46" y2="-35.899"/>
			
				<line fill="none" stroke="#231F20" stroke-width="0.5" stroke-linecap="round" stroke-linejoin="bevel" x1="27.859" y1="-52.227" x2="27.859" y2="-52.227"/>
			
				<line fill="none" stroke="#231F20" stroke-width="0.5" stroke-linecap="round" stroke-linejoin="bevel" x1="39.96" y1="-44.649" x2="39.96" y2="-44.649"/>
			
				<line fill="none" stroke="#231F20" stroke-width="0.5" stroke-linecap="round" stroke-linejoin="bevel" x1="34.46" y1="-40.399" x2="34.46" y2="-40.399"/>
			
				<line fill="none" stroke="#231F20" stroke-width="0.5" stroke-linecap="round" stroke-linejoin="bevel" x1="33.96" y1="-48.399" x2="33.96" y2="-48.399"/>
			
				<line fill="none" stroke="#231F20" stroke-width="0.5" stroke-linecap="round" stroke-linejoin="bevel" x1="52.71" y1="-50.399" x2="52.71" y2="-50.399"/>
			
				<line fill="none" stroke="#231F20" stroke-width="0.5" stroke-linecap="round" stroke-linejoin="bevel" x1="59.21" y1="-58.899" x2="59.21" y2="-58.899"/>
			
				<line fill="none" stroke="#231F20" stroke-width="0.5" stroke-linecap="round" stroke-linejoin="bevel" x1="46.96" y1="-62.149" x2="46.96" y2="-62.149"/>
			
				<line fill="none" stroke="#231F20" stroke-width="0.5" stroke-linecap="round" stroke-linejoin="bevel" x1="25.609" y1="-57.977" x2="25.609" y2="-57.977"/>
			
				<line fill="none" stroke="#231F20" stroke-width="0.5" stroke-linecap="round" stroke-linejoin="bevel" x1="35.21" y1="-62.649" x2="35.21" y2="-62.649"/>
			
				<line fill="none" stroke="#231F20" stroke-width="0.5" stroke-linecap="round" stroke-linejoin="bevel" x1="33.859" y1="-55.727" x2="33.859" y2="-55.727"/>
			
				<line fill="none" stroke="#231F20" stroke-width="0.5" stroke-linecap="round" stroke-linejoin="bevel" x1="42.859" y1="-41.227" x2="42.859" y2="-41.227"/>
			
				<line fill="none" stroke="#231F20" stroke-width="0.5" stroke-linecap="round" stroke-linejoin="bevel" x1="63.46" y1="-61.149" x2="63.46" y2="-61.149"/>
			
				<line fill="none" stroke="#231F20" stroke-width="0.5" stroke-linecap="round" stroke-linejoin="bevel" x1="68.96" y1="-49.149" x2="68.96" y2="-49.149"/>
			
				<line fill="none" stroke="#231F20" stroke-width="0.5" stroke-linecap="round" stroke-linejoin="bevel" x1="62.71" y1="-48.899" x2="62.71" y2="-48.899"/>
			
				<line fill="none" stroke="#231F20" stroke-width="0.5" stroke-linecap="round" stroke-linejoin="bevel" x1="77.859" y1="-60.977" x2="77.859" y2="-60.977"/>
			
				<line fill="none" stroke="#231F20" stroke-width="0.5" stroke-linecap="round" stroke-linejoin="bevel" x1="65.96" y1="-40.899" x2="65.96" y2="-40.899"/>
			
				<line fill="none" stroke="#231F20" stroke-width="0.5" stroke-linecap="round" stroke-linejoin="bevel" x1="51.21" y1="-42.149" x2="51.21" y2="-42.149"/>
			
				<line fill="none" stroke="#231F20" stroke-width="0.5" stroke-linecap="round" stroke-linejoin="bevel" x1="68.46" y1="-65.149" x2="68.46" y2="-65.149"/>
			
				<line fill="none" stroke="#231F20" stroke-width="0.5" stroke-linecap="round" stroke-linejoin="bevel" x1="68.359" y1="-55.977" x2="68.359" y2="-55.977"/>
			
				<line fill="none" stroke="#231F20" stroke-width="0.5" stroke-linecap="round" stroke-linejoin="bevel" x1="48.609" y1="-53.477" x2="48.609" y2="-53.477"/>
			
				<line fill="none" stroke="#231F20" stroke-width="0.5" stroke-linecap="round" stroke-linejoin="bevel" x1="23.859" y1="-41.977" x2="23.859" y2="-41.977"/>
			
				<line fill="none" stroke="#231F20" stroke-width="0.5" stroke-linecap="round" stroke-linejoin="bevel" x1="19.859" y1="-36.727" x2="19.859" y2="-36.727"/>
			
				<line fill="none" stroke="#231F20" stroke-width="0.5" stroke-linecap="round" stroke-linejoin="bevel" x1="86.859" y1="-53.227" x2="86.859" y2="-53.227"/>
			
				<line fill="none" stroke="#231F20" stroke-width="0.5" stroke-linecap="round" stroke-linejoin="bevel" x1="30.359" y1="-66.477" x2="30.359" y2="-66.477"/>
			
				<line fill="none" stroke="#231F20" stroke-width="0.5" stroke-linecap="round" stroke-linejoin="bevel" x1="26.359" y1="-71.227" x2="26.359" y2="-71.227"/>
			
				<line fill="none" stroke="#231F20" stroke-width="0.5" stroke-linecap="round" stroke-linejoin="bevel" x1="28.359" y1="-63.227" x2="28.359" y2="-63.227"/>
			
				<line fill="none" stroke="#231F20" stroke-width="0.5" stroke-linecap="round" stroke-linejoin="bevel" x1="35.859" y1="-69.727" x2="35.859" y2="-69.727"/>
			
				<line fill="none" stroke="#231F20" stroke-width="0.5" stroke-linecap="round" stroke-linejoin="bevel" x1="42.609" y1="-72.227" x2="42.609" y2="-72.227"/>
			
				<line fill="none" stroke="#231F20" stroke-width="0.5" stroke-linecap="round" stroke-linejoin="bevel" x1="46.859" y1="-68.227" x2="46.859" y2="-68.227"/>
			
				<line fill="none" stroke="#231F20" stroke-width="0.5" stroke-linecap="round" stroke-linejoin="bevel" x1="87.859" y1="-33.727" x2="87.859" y2="-33.727"/>
			
				<line fill="none" stroke="#231F20" stroke-width="0.5" stroke-linecap="round" stroke-linejoin="bevel" x1="73.859" y1="-48.477" x2="73.859" y2="-48.477"/>
			
				<line fill="none" stroke="#231F20" stroke-width="0.5" stroke-linecap="round" stroke-linejoin="bevel" x1="55.859" y1="-71.227" x2="55.859" y2="-71.227"/>
			
				<line fill="none" stroke="#231F20" stroke-width="0.5" stroke-linecap="round" stroke-linejoin="bevel" x1="65.859" y1="-72.227" x2="65.859" y2="-72.227"/>
			
				<line fill="none" stroke="#231F20" stroke-width="0.5" stroke-linecap="round" stroke-linejoin="bevel" x1="80.859" y1="-69.727" x2="80.859" y2="-69.727"/>
			
				<line fill="none" stroke="#231F20" stroke-width="0.5" stroke-linecap="round" stroke-linejoin="bevel" x1="71.359" y1="-73.227" x2="71.359" y2="-73.227"/>
			
				<line fill="none" stroke="#231F20" stroke-width="0.5" stroke-linecap="round" stroke-linejoin="bevel" x1="50.859" y1="-70.227" x2="50.859" y2="-70.227"/>
			
				<line fill="none" stroke="#231F20" stroke-width="0.5" stroke-linecap="round" stroke-linejoin="bevel" x1="42.609" y1="-64.227" x2="42.609" y2="-64.227"/>
			
				<line fill="none" stroke="#231F20" stroke-width="0.5" stroke-linecap="round" stroke-linejoin="bevel" x1="54.609" y1="-55.227" x2="54.609" y2="-55.227"/>
			
				<line fill="none" stroke="#231F20" stroke-width="0.5" stroke-linecap="round" stroke-linejoin="bevel" x1="72.71" y1="-61.399" x2="72.71" y2="-61.399"/>
			
				<line fill="none" stroke="#231F20" stroke-width="0.5" stroke-linecap="round" stroke-linejoin="bevel" x1="85.859" y1="-71.727" x2="85.859" y2="-71.727"/>
			
				<line fill="none" stroke="#231F20" stroke-width="0.5" stroke-linecap="round" stroke-linejoin="bevel" x1="21.859" y1="-14.977" x2="21.859" y2="-14.977"/>
			
				<line fill="none" stroke="#231F20" stroke-width="0.5" stroke-linecap="round" stroke-linejoin="bevel" x1="87.109" y1="-44.477" x2="87.109" y2="-44.477"/>
			
				<line fill="none" stroke="#231F20" stroke-width="0.5" stroke-linecap="round" stroke-linejoin="bevel" x1="49.359" y1="-25.977" x2="49.359" y2="-25.977"/>
			
				<line fill="none" stroke="#231F20" stroke-width="0.5" stroke-linecap="round" stroke-linejoin="bevel" x1="54.109" y1="-22.727" x2="54.109" y2="-22.727"/>
			
				<line fill="none" stroke="#231F20" stroke-width="0.5" stroke-linecap="round" stroke-linejoin="bevel" x1="47.109" y1="-29.977" x2="47.109" y2="-29.977"/>
			
				<line fill="none" stroke="#231F20" stroke-width="0.5" stroke-linecap="round" stroke-linejoin="bevel" x1="31.109" y1="-23.477" x2="31.109" y2="-23.477"/>
			
				<line fill="none" stroke="#231F20" stroke-width="0.5" stroke-linecap="round" stroke-linejoin="bevel" x1="47.359" y1="-11.227" x2="47.359" y2="-11.227"/>
			
				<line fill="none" stroke="#231F20" stroke-width="0.5" stroke-linecap="round" stroke-linejoin="bevel" x1="20.109" y1="-58.727" x2="20.109" y2="-58.727"/>
			
				<line fill="none" stroke="#231F20" stroke-width="0.5" stroke-linecap="round" stroke-linejoin="bevel" x1="28.609" y1="-46.977" x2="28.609" y2="-46.977"/>
			
				<line fill="none" stroke="#231F20" stroke-width="0.5" stroke-linecap="round" stroke-linejoin="bevel" x1="80.609" y1="-42.477" x2="80.609" y2="-42.477"/>
			
				<line fill="none" stroke="#231F20" stroke-width="0.5" stroke-linecap="round" stroke-linejoin="bevel" x1="21.948" y1="-32.869" x2="21.948" y2="-32.869"/>
			<path fill="none" stroke="#231F20" stroke-width="0.5" stroke-linecap="round" stroke-linejoin="bevel" d="M8.109-12.852
				c0.207,0,0.375,0.167,0.375,0.375c0,0.207-0.168,0.375-0.375,0.375c-0.208,0-0.375-0.168-0.375-0.375
				C7.734-12.685,7.901-12.852,8.109-12.852z"/>
		</g>
	</g>
</pattern>
<g id="Layer_2">
	<path fill="#717C12" stroke="#231F20" stroke-width="3" d="M363,25l1,46l-17-18c0,0-10.333-11.333-21.333,0.667S297,81,297,81
		s-0.165,0.105-0.474,0.305C292.078,84.175,257.675,106.52,253,114c-5,8-39,48-48,83s-47,69-47,69s0,16,17,8
		s16.333-4.334,16.333-4.334S185,288,186,317s-2.5,33.375-12.5,69.375c-10,36,23.5-6.709,23.5-6.709S197,416,207,453s10,57,9,74
		s16-13,16-13s0.667,17,6.667,36s18.064,37.523,18.667,46c0.417,5.875-0.648,45.512,1.667,49.5
		c2.25,3.875,27.667-23.834,27.667-23.834s4.642,14.766,16.5,29.584c0.841,1.051,7.314-5.561,7.75-4.25
		c8.915,26.834,40.411,55.316,44.082,58c26,19,40,43,44,53s6-1,6-1s25.001-27.668,36.001-37.668S462,702,462,702s5,11,9,11
		s43-77,52-80s10,5,22-19s15-71,15-71s10.334,8.334,17.334,9.334s14.334,1.334,14.334,1.334S579.966,522.094,582,496
		c4.001-51.332,5.002-53.998,7.668-60.666c2.599-6.5,17,0,17,0s-10.667-38.667-9.667-59.667S599,344,601,326s-3-39-3-39s16,7,19-1
		c2.889-7.702-8.999-19.332-9.999-24.999c0,0-6.001-36.001-13.001-64.001s-28.667-47-28.667-47l15-19.667c0,0-29.317-0.662-40-11
		c-10.333-10-53.918-59.03-72.667-63.333c-20.332-4.667-62.332,18.001-62.332,18.001l-2.333-49L363,25z"/>
	<path fill="none" stroke="#231F20" stroke-width="3" d="M338.333,89.667c0,0-20.667-18-43.333-7.333"/>
</g>
<g id="Layer_3">
	<path fill="#999933" stroke="#231F20" stroke-width="3" d="M357,134c0,0-18.5-16-37.902-18.396
		c-7.59-0.938-43.497,16.499-61.497,46.498s-26.999,50.998-25.499,65.997S223,259.5,223,259.5s42.101-35.901,79.599-50.901
		C340.097,193.599,354,188.5,357.5,182C363.483,170.889,357,134,357,134z"/>
	<path fill="#999933" stroke="#231F20" stroke-width="3" d="M361,201c0,0-14.666,16.667-35.333,22.667s-17.333-2-41.333,13.333
		s-54,40-58,44.667s-6.667,20.667-8.667,32S211,360.333,211,360.333S253.667,323,275.667,315s22,3.333,46-8.667
		s38.667-14.667,40.667-18.667s5.333-12.667,3.333-23.333S359,253.667,359,245S361,201,361,201z"/>
	<path fill="#999933" stroke="#231F20" stroke-width="3" d="M363.667,311c0,0-6.667-8.667-19.333,0S293,328.334,283,331.667
		S236.333,353,233,373s-2.667,72.667,0,84.667S239,475,239,475s20.667-36.666,32.667-45.334c12-8.666,36-24.667,54.667-30
		s31.333-15.333,31.333-15.333S366.333,360.333,365,341S363.667,311,363.667,311z"/>
	<path fill="#999933" stroke="#231F20" stroke-width="3" d="M368.333,401c0,0-22.667,13.334-38.667,14.667
		c-16,1.334-46,32.668-46,32.668s-24,16.666-24,48C259.666,527.667,281,565,281,565s8-33.334,24-51.334s40.667-27.332,40.667-27.332
		s25.333-5.334,26-12c0.667-6.668,2.667-14.668-4-31.334S368.333,401,368.333,401z"/>
	<path fill="#999933" stroke="#231F20" stroke-width="3" d="M368.333,492.334c0,0-43.333,20-52.667,40s-14.667,23.334-15.333,52
		S305,623.667,305,623.667S308.333,611,320.333,595s14-12,14-12S331,549.667,341,541.667s12-12.666,22.667-19.332
		C374.334,515.667,368.333,492.334,368.333,492.334z"/>
	<path fill="#999933" stroke="#231F20" stroke-width="3" d="M411,533c0,0,45.334,18,51.334,49.334c6,31.332-4.667,52.666-4.667,56
		c0,3.332-6.667,36-4.667,43.332C455,689,430.334,651,430.334,651S419.666,688.333,415,697c-4.666,8.666-9.333,16.666-9.333,16.666
		s-19.333-16.666-24-42c-4.667-25.332-4.667-50-4-60s14.667-25.998,16-31.332s-1.333-23.334,0.667-28
		C396.334,547.667,411,533,411,533z"/>
	<path fill="#999933" stroke="#231F20" stroke-width="3" d="M399.667,446.334c0,0-2.667,32.666-0.667,34c2,1.332,18,2,18.667,12
		s-4.667,18,6.667,26c11.333,8,24.666,14,30.666,20s20.666,18.666,24,27.332c3.334,8.668,6,14.668,6,14.668s28.668-4.666,31.334-8
		S522.333,538.333,517,531c-5.333-7.334-11.334-22.666-56-46.666S399.667,446.334,399.667,446.334z"/>
	<path fill="#999933" stroke="#231F20" stroke-width="3" d="M394.334,378.334c0,0-5.334,33.333,10,50.667
		c15.333,17.334,34.666,25.332,54,34c19.333,8.666,52.667,30.668,60,41.334s17.334,36.666,18,37.332
		C537,542.334,542.333,515,533,481s-15.333-50.666-43.333-67.334c-28-16.667-44.667-24-66-28S394.334,378.334,394.334,378.334z"/>
	<path fill="#999933" stroke="#231F20" stroke-width="3" d="M398.334,279.667c0,0,4,24.666,0,33.333s-6,28.667,3.333,38.667
		s49.333,24.667,76,34.667s50.666,38,55.333,50s10.667,19.332,10.667,19.332s2-26.666,2-48c0-21.333,5.333-34.667-18-58.667
		S489,311.667,464.334,305c-24.667-6.667-41.334-9.333-50-14C405.667,286.333,398.334,279.667,398.334,279.667z"/>
	<path fill="#999933" stroke="#231F20" stroke-width="3" d="M392.334,194.333c0,0-14,24,2,53.333C410.334,277,433,281,447.667,283
		s42.666,16,51.333,20.667s32.001,20,41.334,32.667s18,30,18,30s-2-36.667-4-56.667s-5.334-43.333-24.667-63.333
		s-26-26.667-53.333-37.333C449,198.333,425,199.667,425,199.667S402.334,201.667,392.334,194.333z"/>
	<path fill="#999933" stroke="#231F20" stroke-width="3" d="M390.333,153c0,0-3.333,18.667,17.333,26
		C428.334,186.333,457,191,473,194.333s54.666,21.333,70,42S558.334,257,558.334,257s0-9.333-2-36s4-40-14.667-58.667
		S509.001,133,486.334,123s-44.668-4-55.334-1.333s-29.333,8-34.666,12C391,137.667,390.333,153,390.333,153z"/>
</g>
<g id="Layer_4">
	<g>
		<path fill="#DBA424" d="M353,149.667c0,0-6-9.333-14-9.333s-4.667,6-21.333,5.333s-21.333,0.667-28.667,6.667
			s-13.333,1.333-21.333,6.667s-15.333,18-13.333,25.333S265.667,191,267.667,197s-6.666,6-7.333,11.333s-6,14,18.667,3.333
			s29.333-7.333,29.333-7.333s38-11.333,42-26.667S353,149.667,353,149.667z"/>
		<pattern  id="SVGID_1_" xlink:href="#Stipple_Irregular" patternTransform="matrix(1 0 0 -1 186.9028 -17409.5781)">
		</pattern>
		<path fill="url(#SVGID_1_)" d="M353,149.667c0,0-6-9.333-14-9.333s-4.667,6-21.333,5.333s-21.333,0.667-28.667,6.667
			s-13.333,1.333-21.333,6.667s-15.333,18-13.333,25.333S265.667,191,267.667,197s-6.666,6-7.333,11.333s-6,14,18.667,3.333
			s29.333-7.333,29.333-7.333s38-11.333,42-26.667S353,149.667,353,149.667z"/>
		<path fill="none" stroke="#231F20" stroke-width="3" d="M353,149.667c0,0-6-9.333-14-9.333s-4.667,6-21.333,5.333
			s-21.333,0.667-28.667,6.667s-13.333,1.333-21.333,6.667s-15.333,18-13.333,25.333S265.667,191,267.667,197s-6.666,6-7.333,11.333
			s-6,14,18.667,3.333s29.333-7.333,29.333-7.333s38-11.333,42-26.667S353,149.667,353,149.667z"/>
	</g>
	<g>
		<path fill="#DBA424" d="M358.333,223c0,0-21.333,9.333-34,9.333S289.667,235.667,277,247s-2.667,14-2.667,14
			s-10.667,0.667-6.667,12.667S257,291,257,291s-4.667,11.333,8,12s24.667-7.333,34-2s4.667,8.667,16,4.667
			s27.333-7.333,31.333-13.333s8-6,9.333-28.667S358.333,223,358.333,223z"/>
		<pattern  id="SVGID_2_" xlink:href="#Stipple_Irregular" patternTransform="matrix(1 0 0 -1 186.9028 -17409.5781)">
		</pattern>
		<path fill="url(#SVGID_2_)" d="M358.333,223c0,0-21.333,9.333-34,9.333S289.667,235.667,277,247s-2.667,14-2.667,14
			s-10.667,0.667-6.667,12.667S257,291,257,291s-4.667,11.333,8,12s24.667-7.333,34-2s4.667,8.667,16,4.667
			s27.333-7.333,31.333-13.333s8-6,9.333-28.667S358.333,223,358.333,223z"/>
		<path fill="none" stroke="#231F20" stroke-width="3" d="M358.333,223c0,0-21.333,9.333-34,9.333S289.667,235.667,277,247
			s-2.667,14-2.667,14s-10.667,0.667-6.667,12.667S257,291,257,291s-4.667,11.333,8,12s24.667-7.333,34-2s4.667,8.667,16,4.667
			s27.333-7.333,31.333-13.333s8-6,9.333-28.667S358.333,223,358.333,223z"/>
	</g>
	<g>
		<path fill="#DBA424" d="M353,319.667c0,0-4.619,8.097-20,8.667C315,329,309,341,309,341s-18.667-1.333-28,6
			s-17.333,9.333-8,17.333s-0.667,22-0.667,22L271,399.667c0,0-16,7.333-6,14c10,6.668,24-9.333,26-11.333s14.667-2,22.667-0.667
			s8.667-9.333,8.667-9.333s10,4.667,13.333,2s4.667-7.334,4.667-7.334s8,2,11.333-2s-5.333-10-1.333-18.667s7.333-12.667,8-21.333
			S353,319.667,353,319.667z"/>
		<pattern  id="SVGID_3_" xlink:href="#Stipple_Irregular" patternTransform="matrix(1 0 0 -1 186.9028 -17409.5781)">
		</pattern>
		<path fill="url(#SVGID_3_)" d="M353,319.667c0,0-4.619,8.097-20,8.667C315,329,309,341,309,341s-18.667-1.333-28,6
			s-17.333,9.333-8,17.333s-0.667,22-0.667,22L271,399.667c0,0-16,7.333-6,14c10,6.668,24-9.333,26-11.333s14.667-2,22.667-0.667
			s8.667-9.333,8.667-9.333s10,4.667,13.333,2s4.667-7.334,4.667-7.334s8,2,11.333-2s-5.333-10-1.333-18.667s7.333-12.667,8-21.333
			S353,319.667,353,319.667z"/>
		<path fill="none" stroke="#231F20" stroke-width="3" d="M353,319.667c0,0-4.619,8.097-20,8.667C315,329,309,341,309,341
			s-18.667-1.333-28,6s-17.333,9.333-8,17.333s-0.667,22-0.667,22L271,399.667c0,0-16,7.333-6,14c10,6.668,24-9.333,26-11.333
			s14.667-2,22.667-0.667s8.667-9.333,8.667-9.333s10,4.667,13.333,2s4.667-7.334,4.667-7.334s8,2,11.333-2s-5.333-10-1.333-18.667
			s7.333-12.667,8-21.333S353,319.667,353,319.667z"/>
	</g>
	<g>
		<path fill="#DBA424" d="M362.333,419.667c0,0-9.333-6.666-25.333-2c-16,4.668-20.667,12.668-20.667,12.668S307,429,304.333,433
			s-0.667,10.666-0.667,10.666s-9.333-2.666-10.667,0.668c-1.334,3.332-0.666,12.666-0.666,12.666s-9.334,0.666-6.667,6.666
			s12.667,6.668,12.667,6.668s8.667,6,4,18s14.667,12,14.667,12s27.333-10.666,36.667-26s2.667-22,2.667-22s0-9.334,4.667-16
			C365.668,429.667,362.333,419.667,362.333,419.667z"/>
		<pattern  id="SVGID_4_" xlink:href="#Stipple_Irregular" patternTransform="matrix(1 0 0 -1 186.9028 -17409.5781)">
		</pattern>
		<path fill="url(#SVGID_4_)" d="M362.333,419.667c0,0-9.333-6.666-25.333-2c-16,4.668-20.667,12.668-20.667,12.668
			S307,429,304.333,433s-0.667,10.666-0.667,10.666s-9.333-2.666-10.667,0.668c-1.334,3.332-0.666,12.666-0.666,12.666
			s-9.334,0.666-6.667,6.666s12.667,6.668,12.667,6.668s8.667,6,4,18s14.667,12,14.667,12s27.333-10.666,36.667-26
			s2.667-22,2.667-22s0-9.334,4.667-16C365.668,429.667,362.333,419.667,362.333,419.667z"/>
		<path fill="none" stroke="#231F20" stroke-width="3" d="M362.333,419.667c0,0-9.333-6.666-25.333-2
			c-16,4.668-20.667,12.668-20.667,12.668S307,429,304.333,433s-0.667,10.666-0.667,10.666s-9.333-2.666-10.667,0.668
			c-1.334,3.332-0.666,12.666-0.666,12.666s-9.334,0.666-6.667,6.666s12.667,6.668,12.667,6.668s8.667,6,4,18s14.667,12,14.667,12
			s27.333-10.666,36.667-26s2.667-22,2.667-22s0-9.334,4.667-16C365.668,429.667,362.333,419.667,362.333,419.667z"/>
	</g>
	<g>
		<path fill="#DBA424" d="M370.5,510.5c0.381-8.57-2.167-18.166-2.167-18.166s-47.378,20.768-54.667,46c-8.667,30,4,8.666,2,18
			c-2,9.332-2,14.666-4,16c-2,1.332-4,26,11.333,10s8.667-20.668,11.333-25.334s16-25.668,30.667-35
			C365.9,520.651,370.306,514.864,370.5,510.5z"/>
		<pattern  id="SVGID_5_" xlink:href="#Stipple_Irregular" patternTransform="matrix(1 0 0 -1 186.9028 -17409.5781)">
		</pattern>
		<path fill="url(#SVGID_5_)" d="M370.5,510.5c0.381-8.57-2.167-18.166-2.167-18.166s-47.378,20.768-54.667,46
			c-8.667,30,4,8.666,2,18c-2,9.332-2,14.666-4,16c-2,1.332-4,26,11.333,10s8.667-20.668,11.333-25.334s16-25.668,30.667-35
			C365.9,520.651,370.306,514.864,370.5,510.5z"/>
		<path fill="none" stroke="#231F20" stroke-width="3" d="M370.5,510.5c0.381-8.57-2.167-18.166-2.167-18.166
			s-47.378,20.768-54.667,46c-8.667,30,4,8.666,2,18c-2,9.332-2,14.666-4,16c-2,1.332-4,26,11.333,10s8.667-20.668,11.333-25.334
			s16-25.668,30.667-35C365.9,520.651,370.306,514.864,370.5,510.5z"/>
	</g>
	<g>
		<path fill="#DBA424" d="M409.666,541c0,0-16.666,4-12,19.334c4.668,15.332,8.667,15.332,6,25.332
			c-2.666,10-7.999,23.334,0.668,26.668c8.666,3.332,7.332-1.334,7.332-1.334s-3.333,12.668,4,15.334
			c7.334,2.666,23.334,21.334,26.668,0C445.666,605,433.666,605,433.666,605s18.001-4,18.668-16c0.666-12-6-16-11.334-20
			s1.334-6.666-10.666-15.334C418.334,545,416.333,540.333,409.666,541z"/>
		<pattern  id="SVGID_6_" xlink:href="#Stipple_Irregular" patternTransform="matrix(1 0 0 -1 186.9028 -17409.5781)">
		</pattern>
		<path fill="url(#SVGID_6_)" d="M409.666,541c0,0-16.666,4-12,19.334c4.668,15.332,8.667,15.332,6,25.332
			c-2.666,10-7.999,23.334,0.668,26.668c8.666,3.332,7.332-1.334,7.332-1.334s-3.333,12.668,4,15.334
			c7.334,2.666,23.334,21.334,26.668,0C445.666,605,433.666,605,433.666,605s18.001-4,18.668-16c0.666-12-6-16-11.334-20
			s1.334-6.666-10.666-15.334C418.334,545,416.333,540.333,409.666,541z"/>
		<path fill="none" stroke="#231F20" stroke-width="3" d="M409.666,541c0,0-16.666,4-12,19.334c4.668,15.332,8.667,15.332,6,25.332
			c-2.666,10-7.999,23.334,0.668,26.668c8.666,3.332,7.332-1.334,7.332-1.334s-3.333,12.668,4,15.334
			c7.334,2.666,23.334,21.334,26.668,0C445.666,605,433.666,605,433.666,605s18.001-4,18.668-16c0.666-12-6-16-11.334-20
			s1.334-6.666-10.666-15.334C418.334,545,416.333,540.333,409.666,541z"/>
	</g>
	<g>
		<path fill="#DBA424" d="M377.667,632.334L381,659.667c0,0,0-8,5.333-0.666s8,15.334,12.667,12.666
			C403.667,669,404.333,655,399.666,649C395,643,405,639,399,636.334C393,633.667,377.667,632.334,377.667,632.334z"/>
		<pattern  id="SVGID_7_" xlink:href="#Stipple_Irregular" patternTransform="matrix(1 0 0 -1 186.9028 -17409.5781)">
		</pattern>
		<path fill="url(#SVGID_7_)" d="M377.667,632.334L381,659.667c0,0,0-8,5.333-0.666s8,15.334,12.667,12.666
			C403.667,669,404.333,655,399.666,649C395,643,405,639,399,636.334C393,633.667,377.667,632.334,377.667,632.334z"/>
		<path fill="none" stroke="#231F20" stroke-width="3" d="M377.667,632.334L381,659.667c0,0,0-8,5.333-0.666s8,15.334,12.667,12.666
			C403.667,669,404.333,655,399.666,649C395,643,405,639,399,636.334C393,633.667,377.667,632.334,377.667,632.334z"/>
	</g>
	<g>
		<path fill="#DBA424" d="M421,476.334c0,0-4.667-9.334-11.334-2.668c-6.666,6.668,10,15.334,10,15.334
			c-0.983,9.834,0.313,4.318-4,14.666c-3.332,8,32,20.668,36,20.668s11.334-0.668,20,11.332c8.667,12,24.001,4.666,23.334-2.666
			c-0.667-7.334-5.333-11.334-6-11.334s0.667-13.332,0.667-13.332s-10.001-8.668-16.667-8.668S447.667,485,444.334,481
			C441,477,421,476.334,421,476.334z"/>
		<pattern  id="SVGID_8_" xlink:href="#Stipple_Irregular" patternTransform="matrix(1 0 0 -1 186.9028 -17409.5781)">
		</pattern>
		<path fill="url(#SVGID_8_)" d="M421,476.334c0,0-4.667-9.334-11.334-2.668c-6.666,6.668,10,15.334,10,15.334
			c-0.983,9.834,0.313,4.318-4,14.666c-3.332,8,32,20.668,36,20.668s11.334-0.668,20,11.332c8.667,12,24.001,4.666,23.334-2.666
			c-0.667-7.334-5.333-11.334-6-11.334s0.667-13.332,0.667-13.332s-10.001-8.668-16.667-8.668S447.667,485,444.334,481
			C441,477,421,476.334,421,476.334z"/>
		<path fill="none" stroke="#231F20" stroke-width="3" d="M421,476.334c0,0-4.667-9.334-11.334-2.668
			c-6.666,6.668,10,15.334,10,15.334c-0.983,9.834,0.313,4.318-4,14.666c-3.332,8,32,20.668,36,20.668s11.334-0.668,20,11.332
			c8.667,12,24.001,4.666,23.334-2.666c-0.667-7.334-5.333-11.334-6-11.334s0.667-13.332,0.667-13.332s-10.001-8.668-16.667-8.668
			S447.667,485,444.334,481C441,477,421,476.334,421,476.334z"/>
	</g>
	<g>
		<path fill="#DBA424" d="M412.334,408.334c0,0,11.332-10,25.332-8s34.001,16,47.334,25.333
			C498.333,435,509.666,446.333,514.333,445c4.667-1.334,1.334,28,1.334,32s-0.668,26-9.334,14.666
			c-8.666-11.332-25.333-23.998-45.999-31.332c-20.668-7.334-38-11.334-44-22.668C410.334,426.334,412.334,408.334,412.334,408.334z
			"/>
		<pattern  id="SVGID_9_" xlink:href="#Stipple_Irregular" patternTransform="matrix(1 0 0 -1 186.9028 -17409.5781)">
		</pattern>
		<path fill="url(#SVGID_9_)" d="M412.334,408.334c0,0,11.332-10,25.332-8s34.001,16,47.334,25.333
			C498.333,435,509.666,446.333,514.333,445c4.667-1.334,1.334,28,1.334,32s-0.668,26-9.334,14.666
			c-8.666-11.332-25.333-23.998-45.999-31.332c-20.668-7.334-38-11.334-44-22.668C410.334,426.334,412.334,408.334,412.334,408.334z
			"/>
		<path fill="none" stroke="#231F20" stroke-width="3" d="M412.334,408.334c0,0,11.332-10,25.332-8s34.001,16,47.334,25.333
			C498.333,435,509.666,446.333,514.333,445c4.667-1.334,1.334,28,1.334,32s-0.668,26-9.334,14.666
			c-8.666-11.332-25.333-23.998-45.999-31.332c-20.668-7.334-38-11.334-44-22.668C410.334,426.334,412.334,408.334,412.334,408.334z
			"/>
	</g>
	<g>
		<path fill="#DBA424" d="M413,300.333c0,0-2.667,19.333-5.334,22c-2.666,2.667-7.999,25.333,20.668,37.333
			c28.666,12,31.333,4.666,65.333,24.667c34,20,40-28.667,28-37.334s-11.334,0.667-17.334-8.667s-6.665-12.667-18.666-12
			s-3.333-8.667-14.667-16S418.334,307.667,413,300.333z"/>
		<pattern  id="SVGID_10_" xlink:href="#Stipple_Irregular" patternTransform="matrix(1 0 0 -1 186.9028 -17409.5781)">
		</pattern>
		<path fill="url(#SVGID_10_)" d="M413,300.333c0,0-2.667,19.333-5.334,22c-2.666,2.667-7.999,25.333,20.668,37.333
			c28.666,12,31.333,4.666,65.333,24.667c34,20,40-28.667,28-37.334s-11.334,0.667-17.334-8.667s-6.665-12.667-18.666-12
			s-3.333-8.667-14.667-16S418.334,307.667,413,300.333z"/>
		<path fill="none" stroke="#231F20" stroke-width="3" d="M413,300.333c0,0-2.667,19.333-5.334,22
			c-2.666,2.667-7.999,25.333,20.668,37.333c28.666,12,31.333,4.666,65.333,24.667c34,20,40-28.667,28-37.334
			s-11.334,0.667-17.334-8.667s-6.665-12.667-18.666-12s-3.333-8.667-14.667-16S418.334,307.667,413,300.333z"/>
	</g>
	<g>
		<path fill="#DBA424" d="M421,212.333c0,0-15.334-2-11.334,16.667s6,8.667,4,18.667s-12.666,12,31.334,26s62.667,22,72,20.667
			s15.334-38-5.333-54s-43.333-24-59.333-24.667s-14,8-20,6S421.666,221,421,212.333z"/>
		<pattern  id="SVGID_11_" xlink:href="#Stipple_Irregular" patternTransform="matrix(1 0 0 -1 186.9028 -17409.5781)">
		</pattern>
		<path fill="url(#SVGID_11_)" d="M421,212.333c0,0-15.334-2-11.334,16.667s6,8.667,4,18.667s-12.666,12,31.334,26
			s62.667,22,72,20.667s15.334-38-5.333-54s-43.333-24-59.333-24.667s-14,8-20,6S421.666,221,421,212.333z"/>
		<path fill="none" stroke="#231F20" stroke-width="3" d="M421,212.333c0,0-15.334-2-11.334,16.667s6,8.667,4,18.667
			s-12.666,12,31.334,26s62.667,22,72,20.667s15.334-38-5.333-54s-43.333-24-59.333-24.667s-14,8-20,6S421.666,221,421,212.333z"/>
	</g>
	<g>
		<path fill="#DBA424" d="M408.334,140.333c0,0,6.666,4.667,11.332,1.333c4.668-3.333,38.668-14.667,50.668-12
			c11.999,2.667,3.333,11.333,29.333,14s5.332,12,20.666,23.333s12,34-4,31.333S493.666,183,457,181s-38.666-0.667-46-10
			S408.334,140.333,408.334,140.333z"/>
		<pattern  id="SVGID_12_" xlink:href="#Stipple_Irregular" patternTransform="matrix(1 0 0 -1 186.9028 -17409.5781)">
		</pattern>
		<path fill="url(#SVGID_12_)" d="M408.334,140.333c0,0,6.666,4.667,11.332,1.333c4.668-3.333,38.668-14.667,50.668-12
			c11.999,2.667,3.333,11.333,29.333,14s5.332,12,20.666,23.333s12,34-4,31.333S493.666,183,457,181s-38.666-0.667-46-10
			S408.334,140.333,408.334,140.333z"/>
		<path fill="none" stroke="#231F20" stroke-width="3" d="M408.334,140.333c0,0,6.666,4.667,11.332,1.333
			c4.668-3.333,38.668-14.667,50.668-12c11.999,2.667,3.333,11.333,29.333,14s5.332,12,20.666,23.333s12,34-4,31.333
			S493.666,183,457,181s-38.666-0.667-46-10S408.334,140.333,408.334,140.333z"/>
	</g>
</g>
<g id="Layer_5">
	<line fill="none" stroke="#231F20" stroke-width="3" x1="385" y1="63" x2="977" y2="63"/>
	<line fill="none" stroke="#231F20" stroke-width="3" x1="609" y1="283" x2="975" y2="283"/>
	<line fill="none" stroke="#231F20" stroke-width="3" x1="481" y1="165" x2="973" y2="165"/>
	<line fill="none" x1="466" y1="442" x2="975" y2="442"/>
	<rect x="881" y="23" fill="none" width="93" height="31"/>
	<text transform="matrix(1 0 0 1 881 51.6401)" font-family="'Arial-BoldMT'" font-size="40">Strig</text>
	<rect x="789" y="124.156" fill="none" width="190" height="34.688"/>
	<text transform="matrix(1 0 0 1 789 152.7964)" font-family="'Arial-BoldMT'" font-size="40">Bracteole</text>
	<rect x="868" y="242" fill="none" width="105" height="33"/>
	<text transform="matrix(1 0 0 1 868 270.6401)" font-family="'Arial-BoldMT'" font-size="40">Bract</text>
	<rect x="686" y="399.469" fill="none" width="290" height="32.063"/>
	<text transform="matrix(1 0 0 1 686 428.1089)" font-family="'Arial-BoldMT'" font-size="40">Lupulin glands</text>
	<rect x="667" y="450.094" fill="none" width="306" height="61.906"/>
	<text transform="matrix(1 0 0 1 667 471.5737)" font-family="'ArialMT'" font-size="30">Containing Resins and </text>
	<text transform="matrix(1 0 0 1 667 507.5737)" font-family="'ArialMT'" font-size="30">Essential Oils</text>
	<line fill="none" stroke="#231F20" stroke-width="3" x1="455" y1="442" x2="975" y2="442"/>
</g>
</svg>
