<?xml version="1.0" encoding="UTF-8" standalone="no"?>
<!-- Created with Inkscape (http://www.inkscape.org/) -->

<svg
   xmlns:dc="http://purl.org/dc/elements/1.1/"
   xmlns:cc="http://creativecommons.org/ns#"
   xmlns:rdf="http://www.w3.org/1999/02/22-rdf-syntax-ns#"
   xmlns:svg="http://www.w3.org/2000/svg"
   xmlns="http://www.w3.org/2000/svg"
   version="1.1"
   width="100%"
   height="100%"
   viewBox="155.03 35.07 388.12 281.21"
   id="svg2985">
  <metadata
     id="metadata3171">
    <rdf:RDF>
      <cc:Work
         rdf:about="">
        <dc:format>image/svg+xml</dc:format>
        <dc:type
           rdf:resource="http://purl.org/dc/dcmitype/StillImage" />
        <dc:title></dc:title>
      </cc:Work>
    </rdf:RDF>
  </metadata>
  <defs
     id="defs3169" />
  <clipPath
     id="107">
    <rect
       width="1116.9"
       height="768.33"
       x="0.85"
       y="0.85"
       id="rect2988" />
  </clipPath>
  <g
     transform="translate(8.0752,7.2321)"
     id="Solid">
    <path
       d="m 224.58,185.25 0,0 0.85,-0.49 0.85,0.49 0,38.7 -0.85,0.49 -0.85,0.49 z"
       id="path2995"
       style="fill:#000000;fill-rule:evenodd;stroke:#000000;stroke-width:0;stroke-linejoin:miter" />
    <path
       d="m 231.38,188.2 0,32.8"
       id="line2997"
       style="stroke:#000000;stroke-width:1.7" />
  </g>
  <g
     transform="translate(8.0752,7.2321)"
     id="g2999">
    <path
       d="m 224.58,224.93 0,0 0.85,-0.49 0.85,-0.49 33.52,19.36 0,0.98 -0.85,0.49 z"
       id="path3001"
       style="fill:#000000;fill-rule:evenodd;stroke:#000000;stroke-width:0;stroke-linejoin:miter" />
  </g>
  <g
     transform="translate(8.0752,7.2321)"
     id="g3003">
    <path
       d="m 260.65,244.78 0,0 -0.85,-0.49 0,-0.98 33.52,-19.36 0.85,0.49 0,0.98 z"
       id="path3005"
       style="fill:#000000;fill-rule:evenodd;stroke:#000000;stroke-width:0;stroke-linejoin:miter" />
    <path
       d="M 259.8,237.41 288.22,221"
       id="line3007"
       style="stroke:#000000;stroke-width:1.7" />
  </g>
  <g
     transform="translate(8.0752,7.2321)"
     id="g3009">
    <path
       d="m 295.02,223.95 0,0 -0.85,0.49 -0.85,-0.49 0,-38.7 0.85,-0.49 0.85,0.49 z"
       id="path3011"
       style="fill:#000000;fill-rule:evenodd;stroke:#000000;stroke-width:0;stroke-linejoin:miter" />
  </g>
  <g
     transform="translate(8.0752,7.2321)"
     id="g3013">
    <path
       d="m 294.17,183.78 0,0 0,0.98 -0.85,0.49 -33.52,-19.36 0,-0.98 0.85,-0.49 z"
       id="path3015"
       style="fill:#000000;fill-rule:evenodd;stroke:#000000;stroke-width:0;stroke-linejoin:miter" />
    <path
       d="M 288.22,188.2 259.8,171.79"
       id="line3017"
       style="stroke:#000000;stroke-width:1.7" />
  </g>
  <g
     transform="translate(8.0752,7.2321)"
     id="g3019">
    <path
       d="m 258.95,164.42 0,0 0.85,0.49 0,0.98 -33.52,19.36 -0.85,-0.49 0,-0.98 z"
       id="path3021"
       style="fill:#000000;fill-rule:evenodd;stroke:#000000;stroke-width:0;stroke-linejoin:miter" />
  </g>
  <g
     transform="translate(8.0752,7.2321)"
     id="g3023">
    <g
       id="text3025"
       style="text-anchor:end">
      <path
         d="m 166.34,174.38 0,-17.18 2.28,0 0,7.06 8.92,0 0,-7.06 2.28,0 0,17.18 -2.28,0 0,-8.1 -8.92,0 0,8.1 z"
         id="path3392"
         style="font-size:24px;fill:#000000;font-family:Arial" />
      <path
         d="m 182.92,166.01 c 0,-2.85 0.77,-5.08 2.3,-6.69 1.53,-1.62 3.51,-2.42 5.93,-2.42 1.59,0 3.02,0.37 4.29,1.13 1.27,0.76 2.24,1.82 2.91,3.17 0.67,1.36 1,2.89 1,4.61 0,1.75 -0.35,3.3 -1.05,4.68 -0.7,1.37 -1.7,2.42 -2.99,3.12 -1.29,0.71 -2.68,1.06 -4.17,1.06 -1.62,0 -3.06,-0.39 -4.34,-1.17 -1.27,-0.78 -2.24,-1.85 -2.89,-3.2 -0.66,-1.35 -0.99,-2.78 -0.99,-4.29 z m 2.35,0 c 0,2.07 0.55,3.7 1.67,4.89 1.11,1.19 2.51,1.79 4.19,1.79 1.71,0 3.12,-0.6 4.22,-1.81 1.11,-1.2 1.66,-2.91 1.66,-5.12 0,-1.4 -0.24,-2.62 -0.71,-3.66 -0.47,-1.04 -1.16,-1.85 -2.07,-2.43 -0.91,-0.57 -1.94,-0.86 -3.07,-0.86 -1.61,0 -2.99,0.56 -4.15,1.66 -1.16,1.11 -1.74,2.95 -1.74,5.54 z"
         id="path3394"
         style="font-size:24px;fill:#000000;font-family:Arial" />
    </g>
  </g>
  <g
     transform="translate(8.0752,7.2321)"
     id="g3029">
    <path
       d="m 225.43,183.78 0,0 0,0.98 -0.85,0.49 -24.04,-13.88 0.43,-0.74 0.42,-0.73 z"
       id="path3031"
       style="fill:#000000;fill-rule:evenodd;stroke:#000000;stroke-width:0;stroke-linejoin:miter" />
  </g>
  <g
     transform="translate(8.0752,7.2321)"
     id="g3033">
    <g
       id="text3035"
       style="text-anchor:start">
      <path
         d="m 251.63,285.02 c 0,-2.85 0.77,-5.08 2.3,-6.69 1.53,-1.62 3.5,-2.42 5.93,-2.42 1.58,0 3.01,0.37 4.29,1.13 1.27,0.76 2.24,1.82 2.91,3.17 0.67,1.36 1,2.89 1,4.61 0,1.75 -0.35,3.3 -1.05,4.68 -0.71,1.37 -1.7,2.42 -2.99,3.12 -1.29,0.71 -2.68,1.06 -4.17,1.06 -1.62,0 -3.07,-0.39 -4.34,-1.17 -1.27,-0.78 -2.24,-1.85 -2.9,-3.2 -0.65,-1.35 -0.98,-2.78 -0.98,-4.29 z m 2.34,0 c 0,2.07 0.56,3.7 1.67,4.89 1.12,1.19 2.51,1.79 4.19,1.79 1.71,0 3.12,-0.6 4.23,-1.81 1.1,-1.2 1.66,-2.91 1.66,-5.12 0,-1.4 -0.24,-2.62 -0.71,-3.66 -0.48,-1.04 -1.17,-1.85 -2.08,-2.43 -0.91,-0.57 -1.93,-0.86 -3.06,-0.86 -1.61,0 -3,0.56 -4.16,1.66 -1.16,1.11 -1.74,2.95 -1.74,5.54 z"
         id="path3383"
         style="font-size:24px;fill:#000000;font-family:Arial" />
      <path
         d="m 283.24,287.37 2.27,0.57 c -0.48,1.87 -1.33,3.29 -2.57,4.27 -1.24,0.98 -2.76,1.47 -4.54,1.47 -1.86,0 -3.36,-0.37 -4.52,-1.13 -1.16,-0.75 -2.04,-1.84 -2.65,-3.27 -0.61,-1.43 -0.91,-2.97 -0.91,-4.61 0,-1.79 0.34,-3.35 1.03,-4.68 0.68,-1.33 1.65,-2.34 2.91,-3.04 1.27,-0.69 2.66,-1.03 4.17,-1.03 1.72,0 3.16,0.43 4.34,1.31 1.17,0.87 1.99,2.11 2.45,3.69 l -2.24,0.53 c -0.4,-1.25 -0.98,-2.16 -1.74,-2.73 -0.75,-0.57 -1.71,-0.86 -2.86,-0.86 -1.32,0 -2.42,0.32 -3.31,0.95 -0.88,0.63 -1.51,1.48 -1.87,2.55 -0.36,1.07 -0.53,2.17 -0.53,3.3 0,1.46 0.21,2.74 0.63,3.83 0.43,1.09 1.09,1.9 1.99,2.44 0.9,0.54 1.87,0.81 2.92,0.81 1.27,0 2.35,-0.37 3.23,-1.1 0.89,-0.74 1.48,-1.83 1.8,-3.27 z"
         id="path3385"
         style="font-size:24px;fill:#000000;font-family:Arial" />
      <path
         d="m 288.39,293.39 0,-17.18 2.28,0 0,7.06 8.93,0 0,-7.06 2.27,0 0,17.18 -2.27,0 0,-8.1 -8.93,0 0,8.1 z"
         id="path3387"
         style="font-size:24px;fill:#000000;font-family:Arial" />
      <path
         d="m 304.57,295.42 1.58,-0.21 c 0.18,0.89 0.49,1.54 0.93,1.94 0.44,0.39 0.97,0.59 1.59,0.59 0.75,0 1.38,-0.26 1.89,-0.77 0.51,-0.52 0.77,-1.16 0.77,-1.92 0,-0.73 -0.24,-1.33 -0.71,-1.8 -0.48,-0.47 -1.08,-0.71 -1.81,-0.71 -0.3,0 -0.67,0.1 -1.12,0.18 l 0.18,-1.39 c 0.1,0 0.19,0 0.25,0 0.67,0 1.28,-0.18 1.82,-0.53 0.54,-0.35 0.81,-0.89 0.81,-1.62 0,-0.58 -0.2,-1.06 -0.59,-1.45 -0.39,-0.38 -0.9,-0.57 -1.52,-0.57 -0.62,0 -1.13,0.2 -1.54,0.58 -0.41,0.39 -0.67,0.97 -0.79,1.74 l -1.58,-0.28 c 0.19,-1.06 0.63,-1.88 1.32,-2.46 0.68,-0.59 1.53,-0.88 2.55,-0.88 0.71,0 1.35,0.15 1.95,0.46 0.59,0.3 1.04,0.71 1.35,1.23 0.32,0.52 0.47,1.08 0.47,1.66 0,0.56 -0.15,1.06 -0.44,1.52 -0.3,0.46 -0.75,0.82 -1.33,1.09 0.76,0.18 1.35,0.54 1.77,1.1 0.43,0.55 0.64,1.24 0.64,2.07 0,1.13 -0.41,2.08 -1.23,2.87 -0.82,0.78 -1.86,1.17 -3.11,1.17 -1.14,0 -2.07,-0.34 -2.82,-1.01 -0.75,-0.68 -1.17,-1.55 -1.28,-2.62 z"
         id="path3389"
         style="font-size:18px;fill:#000000;font-family:Arial" />
    </g>
  </g>
  <g
     transform="translate(8.0752,7.2321)"
     id="g3041">
    <path
       d="m 258.95,244.78 0,0 0.85,-0.49 0.85,0.49 0,28.95 -0.85,0 -0.85,0 z"
       id="path3043"
       style="fill:#000000;fill-rule:evenodd;stroke:#000000;stroke-width:0;stroke-linejoin:miter" />
  </g>
  <g
     transform="translate(8.0752,7.2321)"
     id="g3045">
    <g
       id="text3047"
       style="text-anchor:start">
      <path
         d="m 320.34,166.01 c 0,-2.85 0.77,-5.08 2.3,-6.69 1.53,-1.62 3.5,-2.42 5.93,-2.42 1.58,0 3.01,0.37 4.29,1.13 1.27,0.76 2.24,1.82 2.91,3.17 0.67,1.36 1,2.89 1,4.61 0,1.75 -0.35,3.3 -1.05,4.68 -0.71,1.37 -1.7,2.42 -2.99,3.12 -1.29,0.71 -2.68,1.06 -4.18,1.06 -1.61,0 -3.06,-0.39 -4.33,-1.17 -1.27,-0.78 -2.24,-1.85 -2.9,-3.2 -0.65,-1.35 -0.98,-2.78 -0.98,-4.29 z m 2.34,0 c 0,2.07 0.56,3.7 1.67,4.89 1.12,1.19 2.51,1.79 4.19,1.79 1.71,0 3.12,-0.6 4.23,-1.81 1.1,-1.2 1.66,-2.91 1.66,-5.12 0,-1.4 -0.24,-2.62 -0.71,-3.66 -0.48,-1.04 -1.17,-1.85 -2.08,-2.43 -0.91,-0.57 -1.93,-0.86 -3.06,-0.86 -1.61,0 -3,0.56 -4.16,1.66 -1.16,1.11 -1.74,2.95 -1.74,5.54 z"
         id="path3378"
         style="font-size:24px;fill:#000000;font-family:Arial" />
      <path
         d="m 339.76,174.38 0,-17.18 2.27,0 0,7.06 8.93,0 0,-7.06 2.27,0 0,17.18 -2.27,0 0,-8.1 -8.93,0 0,8.1 z"
         id="path3380"
         style="font-size:24px;fill:#000000;font-family:Arial" />
    </g>
  </g>
  <g
     transform="translate(8.0752,7.2321)"
     id="g3051">
    <path
       d="m 295.02,185.25 0,0 -0.85,-0.49 0,-0.98 24.14,-13.94 0.42,0.74 0.43,0.73 z"
       id="path3053"
       style="fill:#000000;fill-rule:evenodd;stroke:#000000;stroke-width:0;stroke-linejoin:miter" />
  </g>
  <g
     transform="translate(8.0752,7.2321)"
     id="g3055">
    <path
       d="m 294.17,225.42 0,0 0,-0.98 0.85,-0.49 33.52,19.36 0,0.98 0,0.98 z"
       id="path3057"
       style="fill:#000000;fill-rule:evenodd;stroke:#000000;stroke-width:0;stroke-linejoin:miter" />
  </g>
  <g
     transform="translate(8.0752,7.2321)"
     id="g3059">
    <path
       d="m 328.54,245.27 0,0 0,-0.98 0,-0.98 33.51,-19.36 0.85,0.49 0.85,0.49 z"
       id="path3061"
       style="fill:#000000;fill-rule:evenodd;stroke:#000000;stroke-width:0;stroke-linejoin:miter" />
  </g>
  <g
     transform="translate(8.0752,7.2321)"
     id="g3063">
    <path
       d="m 363.75,224.93 0,0 -0.85,-0.49 -0.85,-0.49 0,-39.68 0.85,0.49 0.85,0.49 z"
       id="path3065"
       style="fill:#000000;fill-rule:evenodd;stroke:#000000;stroke-width:0;stroke-linejoin:miter" />
    <path
       d="m 356.95,221 0,-36.24"
       id="line3067"
       style="stroke:#000000;stroke-width:1.7" />
  </g>
  <g
     transform="translate(8.0752,7.2321)"
     id="g3069">
    <path
       d="m 363.75,185.25 0,0 -0.85,-0.49 -0.85,-0.49 34.37,-19.85 0.85,0.49 0,0.98 z"
       id="path3071"
       style="fill:#000000;fill-rule:evenodd;stroke:#000000;stroke-width:0;stroke-linejoin:miter" />
  </g>
  <g
     transform="translate(8.0752,7.2321)"
     id="g3073">
    <path
       d="m 397.27,165.89 0,0 0,-0.98 0.85,-0.49 33.52,19.36 0,0.98 0,0.98 z"
       id="path3075"
       style="fill:#000000;fill-rule:evenodd;stroke:#000000;stroke-width:0;stroke-linejoin:miter" />
    <path
       d="m 403.22,161.47 28.42,16.41"
       id="line3077"
       style="stroke:#000000;stroke-width:1.7" />
  </g>
  <g
     transform="translate(8.0752,7.2321)"
     id="g3079">
    <path
       d="m 431.64,185.74 0,0 0,-0.98 0,-0.98 33.52,-19.36 0.85,0.49 0.85,0.49 z"
       id="path3081"
       style="fill:#000000;fill-rule:evenodd;stroke:#000000;stroke-width:0;stroke-linejoin:miter" />
  </g>
  <g
     transform="translate(8.0752,7.2321)"
     id="g3083">
    <path
       d="m 466.86,165.4 0,0 -0.85,-0.49 -0.85,-0.49 0,-38.7 0.85,-0.49 0.85,0.49 z"
       id="path3085"
       style="fill:#000000;fill-rule:evenodd;stroke:#000000;stroke-width:0;stroke-linejoin:miter" />
    <path
       d="m 460.06,161.47 0,-32.8"
       id="line3087"
       style="stroke:#000000;stroke-width:1.7" />
  </g>
  <g
     transform="translate(8.0752,7.2321)"
     id="g3089">
    <path
       d="m 466.01,124.25 0,0 0,0.98 -0.85,0.49 -33.52,-19.35 0,-0.98 0,-0.98 z"
       id="path3091"
       style="fill:#000000;fill-rule:evenodd;stroke:#000000;stroke-width:0;stroke-linejoin:miter" />
  </g>
  <g
     transform="translate(8.0752,7.2321)"
     id="g3093">
    <path
       d="m 431.64,104.41 0,0 0,0.98 0,0.98 -33.52,19.35 -0.85,-0.49 -0.85,-0.49 z"
       id="path3095"
       style="fill:#000000;fill-rule:evenodd;stroke:#000000;stroke-width:0;stroke-linejoin:miter" />
    <path
       d="m 431.64,112.26 -28.42,16.41"
       id="line3097"
       style="stroke:#000000;stroke-width:1.7" />
  </g>
  <g
     transform="translate(8.0752,7.2321)"
     id="g3099">
    <path
       d="m 396.42,124.74 0,0 0.85,0.49 0.85,0.49 0,38.7 -0.85,0.49 -0.85,-0.49 z"
       id="path3101"
       style="fill:#000000;fill-rule:evenodd;stroke:#000000;stroke-width:0;stroke-linejoin:miter" />
  </g>
  <g
     transform="translate(8.0752,7.2321)"
     id="g3103">
    <g
       id="text3105"
       style="text-anchor:start">
      <path
         d="m 320.37,285.02 c 0,-2.85 0.77,-5.08 2.3,-6.69 1.53,-1.62 3.5,-2.42 5.93,-2.42 1.58,0 3.01,0.37 4.29,1.13 1.27,0.76 2.24,1.82 2.91,3.17 0.67,1.36 1,2.89 1,4.61 0,1.75 -0.35,3.3 -1.05,4.68 -0.71,1.37 -1.7,2.42 -2.99,3.12 -1.29,0.71 -2.68,1.06 -4.18,1.06 -1.61,0 -3.06,-0.39 -4.33,-1.17 -1.27,-0.78 -2.24,-1.85 -2.9,-3.2 -0.65,-1.35 -0.98,-2.78 -0.98,-4.29 z m 2.34,0 c 0,2.07 0.56,3.7 1.67,4.89 1.12,1.19 2.51,1.79 4.19,1.79 1.71,0 3.12,-0.6 4.23,-1.81 1.1,-1.2 1.66,-2.91 1.66,-5.12 0,-1.4 -0.24,-2.62 -0.71,-3.66 -0.48,-1.04 -1.17,-1.85 -2.08,-2.43 -0.91,-0.57 -1.93,-0.86 -3.06,-0.86 -1.61,0 -3,0.56 -4.16,1.66 -1.16,1.11 -1.74,2.95 -1.74,5.54 z"
         id="path3371"
         style="font-size:24px;fill:#000000;font-family:Arial" />
    </g>
  </g>
  <g
     transform="translate(8.0752,7.2321)"
     id="g3109">
    <path
       d="m 331.51,244.29 0,29.44"
       id="line3111"
       style="stroke:#000000;stroke-width:1.7" />
    <path
       d="m 326.42,244.05 0,0 -1.7,-0.99 0,30.67 1.7,0 z"
       id="path3113"
       style="fill:#000000;fill-rule:evenodd;stroke:#000000;stroke-width:0;stroke-linejoin:miter" />
    <path
       d="m 332.36,243.06 0,0 -1.7,0.98 0,29.69 1.7,0 z"
       id="path3115"
       style="fill:#000000;fill-rule:evenodd;stroke:#000000;stroke-width:0;stroke-linejoin:miter" />
  </g>
  <g
     transform="translate(8.0752,7.2321)"
     id="g3117">
    <g
       id="text3119"
       style="text-anchor:start">
      <path
         d="m 492.18,106.48 c 0,-2.85 0.77,-5.08 2.3,-6.694 1.53,-1.614 3.5,-2.42 5.93,-2.42 1.58,0 3.01,0.379 4.29,1.136 1.27,0.758 2.24,1.818 2.91,3.168 0.67,1.36 1,2.89 1,4.61 0,1.75 -0.35,3.3 -1.05,4.68 -0.71,1.37 -1.7,2.42 -2.99,3.12 -1.29,0.71 -2.68,1.06 -4.18,1.06 -1.61,0 -3.06,-0.39 -4.33,-1.17 -1.27,-0.78 -2.24,-1.85 -2.9,-3.2 -0.65,-1.35 -0.98,-2.78 -0.98,-4.29 z m 2.34,0 c 0,2.07 0.56,3.7 1.67,4.89 1.12,1.19 2.51,1.79 4.19,1.79 1.71,0 3.12,-0.6 4.23,-1.81 1.1,-1.2 1.66,-2.91 1.66,-5.12 0,-1.4 -0.24,-2.62 -0.71,-3.66 -0.48,-1.04 -1.17,-1.85 -2.08,-2.43 -0.91,-0.57 -1.93,-0.857 -3.06,-0.857 -1.61,0 -3,0.552 -4.16,1.657 -1.16,1.11 -1.74,2.95 -1.74,5.54 z"
         id="path3365"
         style="font-size:24px;fill:#000000;font-family:Arial" />
      <path
         d="m 511.6,114.85 0,-17.18 2.27,0 0,7.05 8.93,0 0,-7.05 2.27,0 0,17.18 -2.27,0 0,-8.1 -8.93,0 0,8.1 z"
         id="path3367"
         style="font-size:24px;fill:#000000;font-family:Arial" />
    </g>
  </g>
  <g
     transform="translate(8.0752,7.2321)"
     id="g3123">
    <path
       d="m 466.86,125.72 0,0 -0.85,-0.49 0,-0.98 24.2,-13.98 0.42,0.74 0.43,0.74 z"
       id="path3125"
       style="fill:#000000;fill-rule:evenodd;stroke:#000000;stroke-width:0;stroke-linejoin:miter" />
  </g>
  <g
     transform="translate(8.0752,7.2321)"
     id="g3127">
    <path
       d="m 260.65,164.42 0,0 -0.85,0.49 -0.85,-0.49 0,-38.7 0.85,-0.49 0.85,-0.49 z"
       id="path3129"
       style="fill:#000000;fill-rule:evenodd;stroke:#000000;stroke-width:0;stroke-linejoin:miter" />
  </g>
  <g
     transform="translate(8.0752,7.2321)"
     id="g3131">
    <path
       d="m 260.65,124.74 0,0 -0.85,0.49 -0.85,0.49 -34.37,-19.84 0.85,-0.49 0.85,-0.49 z"
       id="path3133"
       style="fill:#000000;fill-rule:evenodd;stroke:#000000;stroke-width:0;stroke-linejoin:miter" />
  </g>
  <g
     transform="translate(8.0752,7.2321)"
     id="g3135">
    <path
       d="m 226.28,104.9 0,0 -0.85,0.49 -0.85,0.49 0,-39.69 0.85,-0.49 0.85,0.49 z"
       id="path3137"
       style="fill:#000000;fill-rule:evenodd;stroke:#000000;stroke-width:0;stroke-linejoin:miter" />
    <path
       d="m 231.38,101.95 0,-32.81"
       id="line3139"
       style="stroke:#000000;stroke-width:1.7" />
  </g>
  <g
     transform="translate(8.0752,7.2321)"
     id="g3141">
    <g
       id="text3143"
       style="text-anchor:end">
      <path
         d="m 156.95,55.31 0,-17.18 2.28,0 0,7.055 8.93,0 0,-7.055 2.27,0 0,17.18 -2.27,0 0,-8.098 -8.93,0 0,8.098 z"
         id="path3357"
         style="font-size:24px;fill:#000000;font-family:Arial" />
      <path
         d="m 173.13,57.339 1.58,-0.211 c 0.19,0.896 0.5,1.542 0.93,1.938 0.44,0.395 0.97,0.593 1.6,0.593 0.74,0 1.37,-0.258 1.88,-0.773 0.52,-0.516 0.77,-1.155 0.77,-1.917 0,-0.726 -0.24,-1.325 -0.71,-1.797 -0.48,-0.472 -1.08,-0.707 -1.81,-0.707 -0.3,0 -0.67,0.06 -1.12,0.175 l 0.18,-1.388 c 0.1,0.01 0.19,0.02 0.25,0.02 0.68,0 1.28,-0.175 1.82,-0.527 0.54,-0.352 0.81,-0.894 0.81,-1.626 0,-0.58 -0.2,-1.061 -0.59,-1.441 -0.39,-0.381 -0.9,-0.572 -1.52,-0.572 -0.61,0 -1.13,0.194 -1.54,0.58 -0.41,0.387 -0.67,0.967 -0.79,1.741 l -1.58,-0.282 c 0.19,-1.06 0.63,-1.882 1.32,-2.465 0.68,-0.583 1.54,-0.874 2.56,-0.874 0.7,0 1.35,0.15 1.94,0.452 0.59,0.302 1.04,0.714 1.36,1.235 0.31,0.521 0.47,1.075 0.47,1.661 0,0.557 -0.15,1.064 -0.45,1.521 -0.3,0.457 -0.74,0.82 -1.33,1.089 0.76,0.176 1.36,0.541 1.78,1.095 0.42,0.553 0.63,1.246 0.63,2.078 0,1.125 -0.41,2.079 -1.23,2.861 -0.82,0.782 -1.86,1.174 -3.11,1.174 -1.13,0 -2.07,-0.337 -2.82,-1.011 -0.75,-0.674 -1.17,-1.547 -1.28,-2.619 z"
         id="path3359"
         style="font-size:18px;fill:#000000;font-family:Arial" />
      <path
         d="m 196.51,49.287 2.27,0.574 c -0.48,1.867 -1.33,3.291 -2.57,4.271 -1.24,0.981 -2.76,1.471 -4.54,1.471 -1.86,0 -3.36,-0.377 -4.52,-1.131 -1.16,-0.754 -2.04,-1.846 -2.65,-3.275 -0.61,-1.43 -0.91,-2.965 -0.91,-4.606 0,-1.789 0.34,-3.349 1.03,-4.681 0.68,-1.332 1.65,-2.344 2.91,-3.036 1.27,-0.691 2.66,-1.037 4.17,-1.037 1.72,0 3.16,0.438 4.34,1.313 1.17,0.875 1.99,2.105 2.45,3.691 l -2.24,0.528 c -0.4,-1.25 -0.98,-2.161 -1.74,-2.731 -0.75,-0.57 -1.71,-0.855 -2.86,-0.855 -1.32,0 -2.42,0.316 -3.31,0.949 -0.88,0.633 -1.51,1.482 -1.87,2.549 -0.35,1.066 -0.53,2.166 -0.53,3.299 0,1.46 0.21,2.736 0.63,3.826 0.43,1.09 1.09,1.904 1.99,2.443 0.9,0.539 1.87,0.809 2.92,0.809 1.27,0 2.35,-0.368 3.23,-1.102 0.89,-0.734 1.48,-1.824 1.8,-3.269 z"
         id="path3361"
         style="font-size:24px;fill:#000000;font-family:Arial" />
    </g>
  </g>
  <g
     transform="translate(8.0752,7.2321)"
     id="g3151">
    <path
       d="m 225.43,64.72 0,0 0,0.98 -0.85,0.49 -24.24,-13.99 0.43,-0.74 0.42,-0.73 z"
       id="path3153"
       style="fill:#000000;fill-rule:evenodd;stroke:#000000;stroke-width:0;stroke-linejoin:miter" />
  </g>
  <g
     transform="translate(8.0752,7.2321)"
     id="g3155">
    <g
       id="text3157"
       style="text-anchor:start">
      <path
         d="m 265.23,49.287 2.27,0.574 c -0.47,1.867 -1.33,3.291 -2.57,4.271 -1.24,0.981 -2.75,1.471 -4.54,1.471 -1.85,0 -3.36,-0.377 -4.52,-1.131 -1.16,-0.754 -2.04,-1.846 -2.65,-3.275 -0.6,-1.43 -0.9,-2.965 -0.9,-4.606 0,-1.789 0.34,-3.349 1.02,-4.681 0.68,-1.332 1.66,-2.344 2.92,-3.036 1.26,-0.691 2.65,-1.037 4.16,-1.037 1.72,0 3.17,0.438 4.34,1.313 1.17,0.875 1.99,2.105 2.45,3.691 l -2.24,0.528 c -0.4,-1.25 -0.98,-2.161 -1.73,-2.731 -0.76,-0.57 -1.71,-0.855 -2.86,-0.855 -1.32,0 -2.43,0.316 -3.31,0.949 -0.89,0.633 -1.51,1.482 -1.87,2.549 -0.36,1.066 -0.54,2.166 -0.54,3.299 0,1.46 0.21,2.736 0.64,3.826 0.42,1.09 1.09,1.904 1.98,2.443 0.9,0.539 1.88,0.809 2.92,0.809 1.28,0 2.35,-0.368 3.24,-1.102 0.88,-0.734 1.48,-1.824 1.79,-3.269 z"
         id="path3350"
         style="font-size:24px;fill:#000000;font-family:Arial" />
      <path
         d="m 270.39,55.31 0,-17.18 2.27,0 0,7.055 8.93,0 0,-7.055 2.27,0 0,17.18 -2.27,0 0,-8.098 -8.93,0 0,8.098 z"
         id="path3352"
         style="font-size:24px;fill:#000000;font-family:Arial" />
      <path
         d="m 286.56,57.339 1.59,-0.211 c 0.18,0.896 0.49,1.542 0.92,1.938 0.44,0.395 0.97,0.593 1.6,0.593 0.74,0 1.37,-0.258 1.88,-0.773 0.52,-0.516 0.77,-1.155 0.77,-1.917 0,-0.726 -0.24,-1.325 -0.71,-1.797 -0.47,-0.472 -1.08,-0.707 -1.81,-0.707 -0.3,0 -0.67,0.06 -1.12,0.175 l 0.18,-1.388 c 0.1,0.01 0.19,0.02 0.25,0.02 0.68,0 1.28,-0.175 1.82,-0.527 0.54,-0.352 0.81,-0.894 0.81,-1.626 0,-0.58 -0.19,-1.061 -0.59,-1.441 -0.39,-0.381 -0.9,-0.572 -1.52,-0.572 -0.61,0 -1.13,0.194 -1.54,0.58 -0.41,0.387 -0.67,0.967 -0.79,1.741 l -1.58,-0.282 c 0.19,-1.06 0.63,-1.882 1.32,-2.465 0.69,-0.583 1.54,-0.874 2.56,-0.874 0.7,0 1.35,0.15 1.94,0.452 0.59,0.302 1.04,0.714 1.36,1.235 0.31,0.521 0.47,1.075 0.47,1.661 0,0.557 -0.15,1.064 -0.45,1.521 -0.3,0.457 -0.74,0.82 -1.33,1.089 0.76,0.176 1.36,0.541 1.78,1.095 0.42,0.553 0.63,1.246 0.63,2.078 0,1.125 -0.41,2.079 -1.23,2.861 -0.82,0.782 -1.86,1.174 -3.11,1.174 -1.13,0 -2.07,-0.337 -2.82,-1.011 -0.74,-0.674 -1.17,-1.547 -1.28,-2.619 z"
         id="path3354"
         style="font-size:18px;fill:#000000;font-family:Arial" />
    </g>
  </g>
  <g
     transform="translate(8.0752,7.2321)"
     id="g3163">
    <path
       d="m 226.28,66.19 0,0 -0.85,-0.49 0,-0.98 24.78,-14.31 0.42,0.74 0.43,0.74 z"
       id="path3165"
       style="fill:#000000;fill-rule:evenodd;stroke:#000000;stroke-width:0;stroke-linejoin:miter" />
  </g>
</svg>
